<svg width="60" height="60" viewBox="0 0 60 60" fill="none" xmlns="http://www.w3.org/2000/svg">
<rect width="60" height="60" fill="#EC1076"/>
<path fill-rule="evenodd" clip-rule="evenodd" d="M39.0815 0C45.105 0 48.116 0 51.3585 1.025C54.8985 2.3135 57.6865 5.1015 58.975 8.6415C60 11.8835 60 14.8955 60 20.9185V39.0815C60 45.105 60 48.116 58.975 51.3585C57.6865 54.8985 54.8985 57.6865 51.3585 58.9745C48.116 60 45.105 60 39.0815 60H20.9185C14.895 60 11.8835 60 8.6415 58.9745C5.1015 57.6865 2.3135 54.8985 1.025 51.3585C0 48.116 0 45.105 0 39.0815V20.9185C0 14.8955 0 11.8835 1.025 8.6415C2.3135 5.1015 5.1015 2.3135 8.6415 1.025C11.8835 0 14.895 0 20.9185 0H39.0815Z" fill="#EC1076"/>
<path d="M39.0815 0.5C45.1216 0.5 48.0476 0.504754 51.1975 1.4985C54.5905 2.73685 57.2631 5.40946 58.5015 8.80246C59.4952 11.9519 59.5 14.8789 59.5 20.9185V39.0815C59.5 45.1215 59.4952 48.0475 58.5015 51.1975C57.2632 54.5905 54.5905 57.2631 51.1976 58.501C48.0476 59.4952 45.1216 59.5 39.0815 59.5H20.9185C14.8784 59.5 11.9519 59.4952 8.80245 58.501C5.40948 57.2631 2.73685 54.5905 1.4985 51.1975C0.504754 48.0476 0.5 45.1216 0.5 39.0815V20.9185C0.5 14.8789 0.504757 11.9519 1.4985 8.80248C2.73684 5.40947 5.40947 2.73684 8.80248 1.4985C11.9519 0.504756 14.8784 0.5 20.9185 0.5H39.0815Z" stroke="white" stroke-opacity="0.05"/>
<path fill-rule="evenodd" clip-rule="evenodd" d="M25.0752 24.3121C25.0752 23.3906 24.4246 22.632 23.2329 22.632C23.2256 22.632 23.218 22.6327 23.2104 22.6334L23.1912 22.6344H11.4004C14.3335 15.2333 21.5559 10 30.0007 10C41.0461 10 50.0002 18.9541 50.0002 29.9995C50.0002 31.1239 49.9062 32.2272 49.7278 33.301H40.6658L41.6785 29.5121C41.9219 28.5915 42.166 27.5623 42.166 26.7489C42.166 24.1226 40.5676 22.5234 37.9678 22.5234C35.7739 22.5234 34.0403 23.6073 32.7676 25.151C32.198 23.5535 30.8982 22.5234 28.9211 22.5234C27.2961 22.5234 26.1045 23.3906 25.0752 24.3121ZM36.1528 34.766C35.7083 36.4158 36.3757 37.4061 37.6675 37.4709V37.475H48.5549C45.5935 44.8174 38.4026 50 30 50C18.9546 50 10 41.0451 10 29.9998C10 28.9134 10.0879 27.8477 10.2544 26.8083H20.2917L18.168 34.766C17.7075 36.4725 18.4385 37.475 19.8203 37.475C20.9038 37.475 21.7705 36.7163 22.1226 35.3893L23.802 29.1601C24.262 27.426 25.2642 26.2623 26.8896 26.2623C28.1624 26.2623 28.8125 26.8849 28.8125 28.0494C28.8125 28.4022 28.7314 28.9434 28.6228 29.3492L27.1602 34.766C26.6997 36.4725 27.4312 37.475 28.8125 37.475C29.896 37.475 30.7625 36.7163 31.1147 35.3893L32.7942 29.1601C33.2544 27.426 34.2568 26.2623 35.8818 26.2623C37.1545 26.2623 37.8047 26.8849 37.8047 28.0494C37.8047 28.4022 37.7236 28.9434 37.6152 29.3492L36.1528 34.766Z" fill="white"/>
<rect width="22" height="22" fill="#617AF7"/>
<mask id="mask0" mask-type="alpha" maskUnits="userSpaceOnUse" x="0" y="0" width="22" height="22">
<rect width="22" height="22" fill="url(#paint0_linear)"/>
</mask>
<g mask="url(#mask0)">
<path fill-rule="evenodd" clip-rule="evenodd" d="M14.8315 19.9381C13.0784 23.4235 9.52856 25.8453 5.39258 25.993C5.19629 26 4.96436 26 4.5 26C4.03564 26 3.80371 26 3.60742 25.993C-2.15967 25.787 -6.78711 21.1595 -6.99292 15.3926C-6.99609 15.3079 -6.9978 15.2164 -6.99878 15.1025C-7 14.9526 -7 14.7637 -7 14.5C-7 14.0358 -7 13.8036 -6.99292 13.6074C-6.78711 7.84045 -2.15967 3.21295 3.60742 3.00702C3.80371 3 4.03564 3 4.5 3C4.96436 3 5.19629 3 5.39258 3.00702C5.65356 3.01636 5.91235 3.03473 6.16846 3.06189C7.92163 -0.423462 11.4714 -2.84528 15.6074 -2.99298C15.8037 -3 16.0356 -3 16.5 -3C16.9644 -3 17.1963 -3 17.3926 -2.99298C23.1597 -2.78705 27.7871 1.84045 27.9929 7.60736C27.9956 7.68195 27.9973 7.76178 27.9983 7.85754C28 8.01367 28 8.21222 28 8.5C28 8.96423 28 9.19635 27.9929 9.39264C27.7871 15.1595 23.1597 19.787 17.3926 19.993C17.1963 20 16.9644 20 16.5 20C16.0356 20 15.8037 20 15.6074 19.993C15.3464 19.9836 15.0876 19.9653 14.8315 19.9381Z" fill="url(#paint1_linear)"/>
<path d="M7.73124 16.545H5.86163V10.7693H7.73124V16.545ZM5.63672 8.58182C5.63672 8.27385 5.74918 8.01117 5.97409 7.79378C6.19901 7.56733 6.47078 7.4541 6.78941 7.4541C7.10804 7.4541 7.37981 7.5628 7.60473 7.78019C7.82964 7.99758 7.9421 8.26479 7.9421 8.58182C7.9421 8.88073 7.82964 9.13888 7.60473 9.35628C7.37981 9.57367 7.10804 9.68236 6.78941 9.68236C6.47078 9.68236 6.19901 9.57367 5.97409 9.35628C5.74918 9.13888 5.63672 8.88073 5.63672 8.58182Z" fill="white"/>
<path d="M12.051 14.9038H13.5411C14.3809 14.9038 15.0718 14.6559 15.6136 14.1601C16.1555 13.6643 16.4264 12.9463 16.4264 12.006C16.4264 11.0657 16.1555 10.3476 15.6136 9.85184C15.0718 9.34751 14.3854 9.09534 13.5546 9.09534H12.051V14.9038ZM13.6088 16.545H10.1816V7.4541H13.6223C15.0221 7.4541 16.16 7.86014 17.0359 8.67221C17.921 9.48428 18.3635 10.5955 18.3635 12.006C18.3635 13.4079 17.921 14.5148 17.0359 15.3269C16.1509 16.139 15.0086 16.545 13.6088 16.545Z" fill="white"/>
</g>
<defs>
<linearGradient id="paint0_linear" x1="20.1143" y1="-5.68966" x2="-5.69867" y2="19.8481" gradientUnits="userSpaceOnUse">
<stop stop-color="#65E1FB"/>
<stop offset="0.409482" stop-color="white" stop-opacity="0.779006"/>
<stop offset="0.569701" stop-color="white" stop-opacity="0.877012"/>
<stop offset="1" stop-color="#FFCA7A"/>
</linearGradient>
<linearGradient id="paint1_linear" x1="25" y1="-10.5" x2="-8.5" y2="29.5" gradientUnits="userSpaceOnUse">
<stop stop-color="#65E1FB"/>
<stop offset="0.409482" stop-color="#65E1FB" stop-opacity="0"/>
<stop offset="0.569701" stop-color="#FFCA7A" stop-opacity="0"/>
<stop offset="1" stop-color="#FFCA7A"/>
</linearGradient>
</defs>
</svg>
